<svg width="30" height="30" viewBox="0 0 30 30" fill="none" xmlns="http://www.w3.org/2000/svg">
<path d="M5.4196 5.4196C5.55228 5.2866 5.70989 5.18107 5.88341 5.10906C6.05693 5.03706 6.24295 5 6.43081 5C6.61868 5 6.8047 5.03706 6.97822 5.10906C7.15174 5.18107 7.30935 5.2866 7.44202 5.4196L15.0004 12.9808L22.5587 5.4196C22.6915 5.28681 22.8492 5.18147 23.0227 5.10961C23.1962 5.03774 23.3821 5.00075 23.5699 5.00075C23.7577 5.00075 23.9437 5.03774 24.1172 5.10961C24.2907 5.18147 24.4484 5.28681 24.5811 5.4196C24.7139 5.5524 24.8193 5.71005 24.8911 5.88355C24.963 6.05705 25 6.24301 25 6.43081C25 6.61861 24.963 6.80457 24.8911 6.97808C24.8193 7.15158 24.7139 7.30923 24.5811 7.44202L17.0199 15.0004L24.5811 22.5587C24.7139 22.6915 24.8193 22.8492 24.8911 23.0227C24.963 23.1962 25 23.3821 25 23.5699C25 23.7577 24.963 23.9437 24.8911 24.1172C24.8193 24.2907 24.7139 24.4484 24.5811 24.5811C24.4484 24.7139 24.2907 24.8193 24.1172 24.8911C23.9437 24.963 23.7577 25 23.5699 25C23.3821 25 23.1962 24.963 23.0227 24.8911C22.8492 24.8193 22.6915 24.7139 22.5587 24.5811L15.0004 17.0199L7.44202 24.5811C7.30923 24.7139 7.15158 24.8193 6.97808 24.8911C6.80457 24.963 6.61861 25 6.43081 25C6.24301 25 6.05705 24.963 5.88355 24.8911C5.71005 24.8193 5.5524 24.7139 5.4196 24.5811C5.28681 24.4484 5.18147 24.2907 5.10961 24.1172C5.03774 23.9437 5.00075 23.7577 5.00075 23.5699C5.00075 23.3821 5.03774 23.1962 5.10961 23.0227C5.18147 22.8492 5.28681 22.6915 5.4196 22.5587L12.9808 15.0004L5.4196 7.44202C5.2866 7.30935 5.18107 7.15174 5.10906 6.97822C5.03706 6.8047 5 6.61868 5 6.43081C5 6.24295 5.03706 6.05693 5.10906 5.88341C5.18107 5.70989 5.2866 5.55228 5.4196 5.4196Z" fill="white"/>
</svg>
