<svg width="68" height="68" viewBox="0 0 68 68" fill="none" xmlns="http://www.w3.org/2000/svg">
<path d="M34.071 0C43.4405 0 51.9582 3.83299 58.0626 9.93737C64.167 16.1837 68 24.7015 68 34.071C68 43.4405 64.167 51.9582 58.0626 58.0626C51.9582 64.167 43.4405 68 34.071 68C24.5595 68 16.1837 64.167 9.93737 58.0626C3.83299 51.9582 0 43.4405 0 34.071C0 24.5595 3.83299 16.1837 9.93737 9.93737C16.0418 3.83299 24.5595 0 34.071 0ZM55.0814 12.9186C49.6868 7.52401 42.3048 4.11691 34.071 4.11691C25.8372 4.11691 18.3132 7.52401 12.9186 12.9186C7.52401 18.3132 4.11691 25.8372 4.11691 34.071C4.11691 42.3048 7.52401 49.6868 12.9186 55.0814C18.3132 60.476 25.6952 63.8831 34.071 63.8831C42.3048 63.8831 49.6868 60.476 55.0814 55.0814C60.476 49.6868 63.8831 42.3048 63.8831 34.071C63.8831 25.8372 60.476 18.3132 55.0814 12.9186Z" fill="white"/>
<path d="M43.7244 22.0042V31.3737H24.2755V22.0042H18.1712V45.9958H24.2755V36.6263H43.7244V45.9958H49.9707V22.0042H43.7244Z" fill="white"/>
</svg>
