<svg width="574" height="64" viewBox="0 0 574 64" fill="none" xmlns="http://www.w3.org/2000/svg">
<g filter="url(#filter0_d_43_202)">
<path d="M50.7705 11.5813V28.7415H15.1996V11.5813H4V55.3644H15.1996V38.2043H50.7705V55.3644H62.0405V11.5813H50.7705ZM91.6947 17.8663C84.017 17.8663 76.6915 19.2787 69.2251 21.6797L73.0287 29.5183C80.5656 27.2585 86.4119 26.8348 91.2016 26.8348C96.2027 26.8348 105.219 27.3997 105.219 34.3909C100.359 32.7667 94.5826 31.7781 88.3137 31.7781C76.6211 31.7781 66.1259 34.8146 66.1259 44.348C66.1259 52.681 72.5357 56 82.89 56C91.5538 56 98.668 53.9521 105.219 50.7743V55.3644H115.925V36.7919C115.784 22.8096 107.05 17.8663 91.6947 17.8663ZM105.219 43.9243C99.7246 46.2547 91.6947 48.0908 85.9188 48.0908C80.3542 48.0908 76.8324 47.8083 76.8324 43.9243C76.8324 40.1816 81.6221 38.7692 89.5816 38.7692C96.414 38.7692 101.415 39.8285 105.219 41.029V43.9243ZM144.523 47.314C137.409 47.314 131.774 45.3367 130.576 39.4754H170.232C170.232 22.739 159.103 17.8663 145.086 17.8663C130.224 17.8663 119.658 23.3745 119.658 37.0038C119.658 50.4918 130.506 56 144.523 56C158.117 56 167.204 51.5511 169.669 42.1589H159.033C156.356 45.9016 151.848 47.314 144.523 47.314ZM145.086 26.058C151.778 26.058 157.061 27.4704 158.822 32.6255H130.928C132.619 27.4704 137.761 26.058 145.086 26.058ZM262.928 11.5813H245.882L214.749 34.2497V11.5813H203.479V55.3644H214.749V46.9609L228.132 37.145L247.362 55.3644H262.928L236.444 31.0013L262.928 11.5813ZM266.309 5.29634V14.6179H277.016V5.29634H266.309ZM266.309 18.5019V55.3644H277.016V18.5019H266.309ZM318.503 27.4704V18.5019H301.105V7.83859L290.328 10.8752V18.5019H280.678V27.4704H290.328V44.2774C290.328 52.3985 296.456 56 305.966 56C310.896 56 314.911 55.6469 318.503 55.0113V46.396C314.207 47.0315 312.305 47.0315 308.924 47.0315C302.444 47.0315 301.105 45.1955 301.105 38.0631V27.4704H318.503ZM321.18 37.0038C321.18 50.4918 331.393 56 346.608 56C360.343 56 369.993 51.4805 371.754 40.6759H360.836C359.428 45.4073 354.356 47.0315 346.608 47.0315C337.451 47.0315 331.816 44.6305 331.816 37.0038C331.816 29.3064 337.451 26.8348 346.608 26.8348C354.356 26.8348 359.428 28.459 360.836 33.1904H371.754C369.993 22.3859 360.343 17.8663 346.608 17.8663C331.393 17.8663 321.18 23.3745 321.18 37.0038ZM407.889 17.8663C398.943 17.8663 391.758 20.8323 386.476 24.9281V5.29634H375.84V55.3644H386.476V34.744C389.786 30.86 397.534 27.1173 404.719 27.1173C413.524 27.1173 416.13 31.2131 416.13 39.0517V55.3644H426.836L426.977 34.9559C426.836 21.3972 417.679 17.8663 407.889 17.8663ZM455.504 47.314C448.39 47.314 442.755 45.3367 441.558 39.4754H481.284C481.284 22.739 470.085 17.8663 456.138 17.8663C441.206 17.8663 430.64 23.3745 430.64 37.0038C430.64 50.4918 441.487 56 455.504 56C469.099 56 478.185 51.5511 480.651 42.1589H470.014C467.338 45.9016 462.83 47.314 455.504 47.314ZM456.068 26.058C462.759 26.058 468.042 27.4704 469.803 32.6255H441.98C443.6 27.4704 448.742 26.058 456.068 26.058ZM517.349 17.8663C508.473 17.8663 501.218 20.8323 496.006 24.9281V18.5019H485.299V55.3644H496.006V34.744C499.246 30.86 506.994 27.1173 514.179 27.1173C522.984 27.1173 525.59 31.2131 525.59 39.0517V55.3644H536.367L536.437 34.9559C536.367 21.3972 527.139 17.8663 517.349 17.8663Z" fill="white"/>
<path d="M552.99 0C557.639 0 561.865 1.90668 564.894 4.94325C567.923 8.05044 569.824 12.2875 569.824 16.9483C569.824 21.6091 567.923 25.8462 564.894 28.8827C561.865 31.9193 557.639 33.826 552.99 33.826C548.271 33.826 544.115 31.9193 541.016 28.8827C537.987 25.8462 536.085 21.6091 536.085 16.9483C536.085 12.2169 537.987 8.05044 541.016 4.94325C544.044 1.90668 548.271 0 552.99 0ZM563.415 6.42623C560.738 3.74275 557.075 2.04792 552.99 2.04792C548.905 2.04792 545.171 3.74275 542.495 6.42623C539.818 9.10971 538.128 12.8525 538.128 16.9483C538.128 21.0441 539.818 24.7163 542.495 27.3997C545.171 30.0832 548.834 31.7781 552.99 31.7781C557.075 31.7781 560.738 30.0832 563.415 27.3997C566.091 24.7163 567.782 21.0441 567.782 16.9483C567.782 12.8525 566.091 9.10971 563.415 6.42623Z" fill="white"/>
<path d="M557.78 10.9458V15.6066H548.13V10.9458H545.101V22.8802H548.13V18.2194H557.78V22.8802H560.879V10.9458H557.78Z" fill="white"/>
</g>
<defs>
<filter id="filter0_d_43_202" x="0" y="0" width="573.824" height="64" filterUnits="userSpaceOnUse" color-interpolation-filters="sRGB">
<feFlood flood-opacity="0" result="BackgroundImageFix"/>
<feColorMatrix in="SourceAlpha" type="matrix" values="0 0 0 0 0 0 0 0 0 0 0 0 0 0 0 0 0 0 127 0" result="hardAlpha"/>
<feOffset dy="4"/>
<feGaussianBlur stdDeviation="2"/>
<feComposite in2="hardAlpha" operator="out"/>
<feColorMatrix type="matrix" values="0 0 0 0 0 0 0 0 0 0 0 0 0 0 0 0 0 0 0.25 0"/>
<feBlend mode="normal" in2="BackgroundImageFix" result="effect1_dropShadow_43_202"/>
<feBlend mode="normal" in="SourceGraphic" in2="effect1_dropShadow_43_202" result="shape"/>
</filter>
</defs>
</svg>
